<?xml version="1.0" encoding="utf-8"?>
<!-- Generator: Adobe Illustrator 26.5.0, SVG Export Plug-In . SVG Version: 6.00 Build 0)  -->
<svg version="1.1" id="Layer_1" xmlns="http://www.w3.org/2000/svg" xmlns:xlink="http://www.w3.org/1999/xlink" x="0px" y="0px"
	 viewBox="0 0 360 78.9" style="enable-background:new 0 0 360 78.9;" xml:space="preserve">
<style type="text/css">
	.st0{fill:#FFFFFF;}
	.st1{fill:#C39E55;}
	.st2{fill:#DBC498;}
</style>
<g id="Group_8721" transform="translate(-79.222 -11.976)">
	<g id="Group_8714">
		<path id="Path_10207" class="st0" d="M330.7,46.7v-17l2.8-0.6v17.5h-2.8V46.7z"/>
		<rect id="Rectangle_1142" x="228.8" y="34.2" class="st0" width="3.9" height="2.6"/>
		<rect id="Rectangle_1143" x="286.9" y="26" class="st0" width="3.9" height="2.6"/>
		<rect id="Rectangle_1144" x="282.7" y="30" class="st0" width="3.9" height="2.6"/>
		<rect id="Rectangle_1145" x="291.1" y="30" class="st0" width="3.9" height="2.6"/>
		<g id="Group_8712">
			<path id="Path_10208" class="st0" d="M224.7,46.5c-3.6,0-6.5-3-6.5-6.5v-3.1h2.6V40c0,2.2,1.7,3.9,3.9,3.9h15.7v-8.3l2.8-0.6
				c0,0,0,4.9,0,6.4c0.1,1.6-0.7,3.1-2.1,3.9c-1,0.6-2.1,0.9-3.2,1l0,0h-0.4L224.7,46.5z"/>
			<path id="Path_10209" class="st0" d="M309.9,44.1l3.6-5.7c-1.2-0.4-2.6-0.6-3.9-0.5h-3.3c-1.4-0.1-2.7,0.1-3.9,0.5l3.6,5.7H309.9
				z M275,44.1v-3.8c0-2.1-1.5-2.5-3.9-2.5h-4.4c-2.5,0-3.9,0.4-3.9,2.5v3.8H275z M293.8,46.7c-1.7,0.1-3.5-0.4-4.9-1.5
				c-1.4,1.1-3.1,1.6-4.9,1.5h-37.9v-17l2.8-0.6v14.9h10.9v-3.8c0-3.1,2.3-4.9,6.2-4.9h5.4c3.8,0,6.2,1.9,6.2,4.9v3.8h6.3
				c3.1,0,3.6-1.1,3.6-2.3v-5.8l2.8-0.6v6.4c0,1.2,0.4,2.3,3.6,2.3h8.6l-3.8-6.2l0.1-0.2c0.9-1.2,2.3-2.3,6.5-2.3h5.1
				c4.1,0,5.6,1.2,6.5,2.3l0.1,0.2l-3.8,6.2h10.4V29.6l2.8-0.6v17.5L293.8,46.7z"/>
		</g>
		<path id="Path_10210" class="st0" d="M203,46.7v-17l2.8-0.6v17.5H203V46.7z"/>
		<rect id="Rectangle_1146" x="174.4" y="29.7" class="st0" width="3.9" height="2.6"/>
		<rect id="Rectangle_1147" x="126.4" y="29.7" class="st0" width="3.9" height="2.6"/>
		<rect id="Rectangle_1148" x="180.7" y="29.7" class="st0" width="3.9" height="2.6"/>
		<rect id="Rectangle_1149" x="89" y="29.7" class="st0" width="3.9" height="2.6"/>
		<rect id="Rectangle_1150" x="95.3" y="29.7" class="st0" width="3.9" height="2.6"/>
		<g id="Group_8713">
			<path id="Path_10211" class="st0" d="M118,44.1h22.2v-3.8c0-2.1-1.5-2.5-3.9-2.5H118C118,37.8,118,44.1,118,44.1z M100.8,44.1
				v-6.2H90.1c-2.5,0-3.9,0.4-3.9,2.5v3.8L100.8,44.1z M103.4,46.5H103H83.3v-6.4c0-3.1,2.3-4.9,6.2-4.9h13.8v8.8h11.8V33.8l2.8-0.6
				v2h18.8c3.8,0,6.2,1.9,6.2,4.9v3.8h10.9v-8.1l2.8-0.6c0,0,0,4.9,0,6.4c0.1,1.6-0.7,3.1-2.1,3.9c-1,0.6-2.1,0.9-3.2,1l0,0h-0.4
				L103.4,46.5z"/>
			<path id="Path_10212" class="st0" d="M185.2,44.1v-6.2h-8.4c-2.5,0-3.9,0.4-3.9,2.5v3.8L185.2,44.1z M159.8,46.7v-17l2.8-0.6
				v14.9h7.7v-3.8c0-3.1,2.3-4.9,6.2-4.9h11.6v8.8h7.8V29.6l2.8-0.6v17.5L159.8,46.7z"/>
		</g>
		<rect id="Rectangle_1151" x="152.5" y="48.9" class="st0" width="3.9" height="2.6"/>
	</g>
	<g id="Group_8718">
		<path id="Path_10213" class="st0" d="M93.4,68.4h-7l3.5-6.9L93.4,68.4z M91.4,58.1h-3.1l-9.1,16.3h3.6l2.1-3.7h9.7l2.1,3.7h3.7
			L91.4,58.1L91.4,58.1z"/>
		<path id="Path_10214" class="st0" d="M102.4,74.5h3.2V56.9l-3.2,0.7V74.5z"/>
		<g id="Group_8715">
			<path id="Path_10215" class="st0" d="M126.5,64.3v2.8c0,0.6,0,1.2-0.2,1.7c-0.1,0.5-0.2,0.9-0.5,1.4c-0.2,0.4-0.5,0.7-0.9,1
				c-0.4,0.2-0.7,0.5-1.1,0.6c-0.4,0.1-0.9,0.4-1.2,0.4c-0.5,0.1-1,0.1-1.4,0.2c-1,0.1-2,0.1-3,0c-0.5,0-1-0.1-1.4-0.2
				c-0.5-0.1-0.9-0.2-1.2-0.4c-0.4-0.1-0.7-0.4-1.1-0.6s-0.6-0.6-0.9-1c-0.2-0.4-0.5-0.9-0.5-1.4c-0.1-0.6-0.2-1.2-0.2-1.7v-2.8
				c0-0.6,0-1.2,0.2-1.9c0.1-0.5,0.2-0.9,0.5-1.4c0.2-0.4,0.5-0.7,0.9-1c0.4-0.2,0.7-0.5,1.1-0.6c0.4-0.1,0.9-0.4,1.2-0.4
				c0.5-0.1,1-0.1,1.4-0.2c0.5,0,1,0,1.5,0c0.5,0,1,0,1.5,0s1,0.1,1.4,0.2c0.5,0.1,0.9,0.2,1.2,0.4c0.4,0.1,0.7,0.4,1.1,0.6
				s0.6,0.6,0.9,1c0.2,0.4,0.5,0.9,0.5,1.4C126.4,63.1,126.5,63.7,126.5,64.3 M129,60.2c-0.2-0.5-0.6-1-1-1.4
				c-0.4-0.4-0.9-0.7-1.4-1c-0.5-0.2-1-0.5-1.5-0.7c-0.5-0.2-1.1-0.4-1.7-0.5c-0.6-0.1-1.2-0.1-1.9-0.2c-1.2-0.1-2.5-0.1-3.7,0
				c-0.6,0-1.2,0.1-1.9,0.2c-0.6,0.1-1.1,0.2-1.7,0.5c-0.5,0.1-1.1,0.4-1.6,0.7c-0.5,0.2-1,0.6-1.4,1c-0.4,0.4-0.7,0.9-1.1,1.4
				c-0.2,0.6-0.5,1.1-0.7,1.9c-0.1,0.7-0.2,1.5-0.2,2.2v2.8c0,0.7,0.1,1.5,0.2,2.2c0.1,0.6,0.4,1.2,0.6,1.7c0.2,0.5,0.6,1,1,1.4
				c0.4,0.4,0.9,0.7,1.4,1s1,0.5,1.5,0.7c0.6,0.2,1.1,0.4,1.7,0.5c0.6,0.1,1.2,0.1,1.9,0.2c0.6,0,1.2,0.1,1.9,0.1s1.2,0,1.9,0
				c0.6,0,1.2-0.1,1.9-0.2c0.6-0.1,1.1-0.2,1.7-0.4c0.5-0.1,1.1-0.4,1.6-0.7c0.5-0.2,1-0.6,1.4-1c0.4-0.4,0.7-0.9,1.1-1.4
				c0.4-0.6,0.5-1.1,0.7-1.7c0.1-0.7,0.2-1.5,0.2-2.2v-3.1c0-0.7-0.1-1.5-0.2-2.2C129.6,61.5,129.3,60.8,129,60.2"/>
			<path id="Path_10216" class="st0" d="M140.8,72.1h-4.7v-7.9h4.7V62h-4.7v-3.5l-3.2,0.9V70c0,2.6,2.1,4.6,4.6,4.6h3.3V72.1z"/>
		</g>
		<path id="Path_10217" class="st0" d="M246,64.4h-12v-7.5h-3.2v17.6h3.3V67h12v7.5h3.3V56.9h-3.3v7.5H246z"/>
		<g id="Group_8716">
			<path id="Path_10218" class="st0" d="M259.9,64.6c0.4,0,0.7,0,1.1,0s0.7,0.1,1,0.1c0.4,0.1,0.6,0.2,0.9,0.4
				c0.2,0.1,0.5,0.4,0.7,0.6s0.4,0.6,0.5,0.9c0.1,0.5,0.1,0.9,0.1,1.4v1.2c0,0.5,0,0.9-0.1,1.4c-0.1,0.4-0.2,0.6-0.5,0.9
				c-0.2,0.2-0.4,0.5-0.7,0.6c-0.2,0.1-0.6,0.2-0.9,0.4c-0.4,0.1-0.7,0.1-1,0.1c-0.7,0.1-1.5,0.1-2.2,0c-0.4,0-0.7-0.1-1-0.1
				c-0.4-0.1-0.6-0.2-0.9-0.4c-0.2-0.1-0.5-0.4-0.7-0.6c-0.2-0.2-0.4-0.6-0.5-1c-0.1-0.4-0.1-0.9-0.1-1.4v-1.2c0-0.5,0-0.9,0.1-1.4
				c0.1-0.4,0.2-0.6,0.5-0.9c0.2-0.2,0.4-0.5,0.7-0.6c0.2-0.1,0.6-0.2,0.9-0.4c0.4-0.1,0.7-0.1,1-0.1
				C259.2,64.6,259.5,64.6,259.9,64.6 M266.6,64.6c-0.2-0.4-0.6-0.7-1-1.1c-0.4-0.2-0.7-0.5-1.2-0.7c-0.5-0.2-1-0.4-1.4-0.5
				c-0.5-0.1-1-0.1-1.5-0.2c-1-0.1-2.1-0.1-3.1,0c-0.5,0-1,0.1-1.5,0.2c-0.5,0.1-1,0.2-1.5,0.5c-0.5,0.1-0.9,0.4-1.2,0.7
				c-0.4,0.2-0.7,0.6-1,1.1c-0.2,0.5-0.5,1-0.6,1.5c-0.1,0.6-0.2,1.2-0.2,1.9v1.2c0,0.6,0.1,1.2,0.2,1.9c0.1,0.5,0.4,1,0.6,1.5
				c0.2,0.4,0.6,0.7,1,1.1c0.4,0.2,0.7,0.5,1.2,0.7c0.5,0.2,1,0.4,1.4,0.4c0.5,0.1,1,0.1,1.5,0.2c0.5,0,1,0.1,1.6,0.1s1,0,1.6-0.1
				c0.5,0,1-0.1,1.5-0.2c0.5-0.1,1-0.2,1.5-0.5c0.5-0.1,0.9-0.4,1.2-0.7c0.4-0.2,0.7-0.6,1-1.1s0.5-1,0.6-1.5
				c0.1-0.6,0.2-1.2,0.2-1.9v-1.2c0-0.6-0.1-1.2-0.2-1.9C267.2,65.5,266.9,65,266.6,64.6"/>
		</g>
		<path id="Path_10219" class="st0" d="M270.4,74.5h3.2V56.9l-3.2,0.9V74.5z"/>
		<rect id="Rectangle_1152" x="295.1" y="59.5" class="st0" width="3.3" height="2.5"/>
		<rect id="Rectangle_1153" x="295.2" y="63.6" class="st0" width="3.2" height="11"/>
		<g id="Group_8717">
			<path id="Path_10220" class="st0" d="M200.8,72.4h-4.4c-0.4,0-0.7,0-1.1,0c-0.4,0-0.7-0.1-1-0.1c-0.4-0.1-0.6-0.2-0.9-0.4
				c-0.2-0.1-0.5-0.4-0.7-0.6c-0.2-0.2-0.4-0.6-0.5-0.9c-0.1-0.4-0.1-0.9-0.1-1.2v-1.6c0-0.4,0-0.9,0.1-1.2c0.1-0.4,0.2-0.6,0.5-0.9
				c0.2-0.2,0.5-0.5,0.7-0.6c1-0.4,2-0.5,3.1-0.4h4.3V72.4z M194,62.2c-1.2,0-2.5,0.2-3.3,1c-0.4,0.2-0.7,0.6-1,1.1s-0.5,1-0.6,1.5
				c-0.1,0.6-0.2,1.2-0.2,1.9v1.6c0,0.6,0.1,1.2,0.2,1.9c0.1,0.5,0.4,1,0.6,1.5c0.2,0.4,0.6,0.7,0.9,1c0.4,0.2,0.7,0.5,1.1,0.7
				c0.4,0.2,0.9,0.4,1.2,0.5c0.5,0.1,0.9,0.1,1.4,0.2c0.5,0,0.9,0,1.4,0c0.6,0,1.2,0,1.9-0.1c0.5-0.1,1.1-0.2,1.6-0.4
				c0.5-0.2,0.9-0.5,1.4-0.7c0.2-0.2,0.5-0.4,0.6-0.7l0.1,1.5h3V62.2C204.1,62.2,194,62.2,194,62.2z"/>
			<path id="Path_10221" class="st0" d="M288.4,72.4H284c0,0-0.7,0-1.1,0s-0.7-0.1-1-0.1c-0.4-0.1-0.6-0.2-0.9-0.4
				c-0.2-0.1-0.5-0.4-0.7-0.6s-0.4-0.6-0.5-0.9c-0.1-0.4-0.1-0.9-0.1-1.2v-1.7c0-0.7,0.2-1.5,0.6-2.1c0.2-0.2,0.5-0.5,0.7-0.6
				c1-0.4,2-0.5,3.1-0.4h4.3V72.4z M288.4,57.6v4.4h-6.8c-1.2,0-2.5,0.2-3.3,1c-0.4,0.2-0.7,0.6-1,1.1c-0.5,1-0.9,2-0.9,3.1v2
				c0,0.6,0.1,1.2,0.2,1.9c0.1,0.5,0.4,1,0.6,1.5c0.2,0.4,0.6,0.7,0.9,1c0.4,0.2,0.7,0.5,1.1,0.7c0.4,0.2,0.9,0.4,1.4,0.5
				c0.5,0.1,0.9,0.1,1.4,0.2c0.5,0,0.9,0.1,1.4,0.1c0.6,0,1.2,0,1.9-0.1c0.5-0.1,1.1-0.2,1.6-0.4c0.5-0.2,0.9-0.5,1.4-0.7
				c0.2-0.2,0.5-0.4,0.6-0.7l0.1,1.5h2.8V56.9L288.4,57.6z"/>
			<path id="Path_10222" class="st0" d="M330.4,72h-4.4l0,0c-0.4,0-0.7,0-1.1,0s-0.7-0.1-1.1-0.1c-0.4-0.1-0.6-0.2-0.9-0.4
				c-0.2-0.1-0.5-0.4-0.7-0.6c-0.2-0.2-0.4-0.5-0.5-0.9c-0.1-0.4-0.1-0.7-0.1-1.2v-1.6c0-0.4,0-0.7,0.1-1.2c0.1-0.2,0.2-0.6,0.5-0.9
				c0.2-0.2,0.9-0.9,3.8-0.9h4.3V72H330.4z M324.7,62.2c-1.1,0-2.2,0.1-3.2,0.4c-0.9,0.2-1.6,0.9-2.1,1.6c-0.2,0.4-0.5,0.9-0.6,1.4
				c-0.1,0.6-0.2,1.2-0.2,1.7V69c0,0.6,0.1,1.2,0.2,1.7s0.4,1,0.6,1.4c0.2,0.4,0.6,0.7,0.9,1c0.4,0.2,0.7,0.5,1.1,0.7
				c0.4,0.1,0.9,0.4,1.2,0.4c0.5,0.1,0.9,0.1,1.4,0.2c1,0.1,2.1,0.1,3.1,0c0.5,0,1-0.1,1.5-0.2c0.5-0.1,0.9-0.4,1.2-0.6
				c0.2-0.1,0.4-0.4,0.6-0.5v0.2c0,0.4,0,0.7-0.1,1.1c-0.1,0.2-0.2,0.6-0.5,0.9c-0.2,0.2-0.5,0.5-0.7,0.6c-0.2,0.1-0.6,0.2-1,0.4
				c-0.4,0.1-0.7,0.1-1.1,0.2c-1.1,0.1-2.2,0.1-3.3-0.1c-0.6-0.1-1.2-0.2-1.9-0.4c-0.6-0.1-1.1-0.4-1.6-0.6l-0.2-0.1l-0.4,2.3
				l0.1,0.1c1.2,0.5,2.6,0.9,3.9,1c0.7,0.1,1.6,0.1,2.3,0.1c1.5,0,2.8-0.1,4.2-0.6c1.1-0.4,2-1,2.6-2c0.6-1,1-2.1,0.9-3.2v-11h-8.9
				V62.2z"/>
			<path id="Path_10223" class="st0" d="M315.6,65.9c-0.1-0.5-0.4-1-0.6-1.5c-0.2-0.4-0.5-0.7-0.9-1.1c-0.4-0.2-0.7-0.5-1.2-0.7
				c-0.5-0.1-0.9-0.2-1.4-0.4c-0.5-0.1-1-0.1-1.6-0.1c-0.7,0-1.6,0.1-2.3,0.2c-0.6,0.1-1.2,0.5-1.9,0.9c-0.4,0.2-0.6,0.6-0.9,1
				l-0.1-1.7h-2.8v11.8h3.2v-9.9h4.3c0.2,0,0.6,0,0.9,0.1c0.4,0,0.6,0.1,0.9,0.4c0.2,0.1,0.5,0.4,0.6,0.6c0.2,0.2,0.4,0.6,0.4,1
				c0.1,0.5,0.1,1,0.1,1.5v6.4h3.2v-6.7C315.7,67.1,315.7,66.5,315.6,65.9"/>
			<path id="Path_10224" class="st0" d="M221.1,65.9c-0.1-0.5-0.4-1-0.6-1.5c-0.2-0.4-0.5-0.7-0.9-1.1c-0.4-0.2-0.7-0.5-1.2-0.7
				c-0.5-0.1-0.9-0.2-1.4-0.4c-0.5-0.1-1-0.1-1.6-0.1c-0.7,0-1.6,0.1-2.3,0.2c-0.6,0.1-1.2,0.5-1.9,0.9c-0.4,0.2-0.6,0.6-0.9,1
				l-0.1-1.7h-2.8v11.8h3.2v-9.9c0,0,3.1,0,4.4,0c0.2,0,0.6,0,0.9,0.1c0.4,0,0.6,0.1,0.9,0.4c0.2,0.1,0.5,0.4,0.6,0.6
				c0.2,0.2,0.4,0.6,0.4,1c0.1,0.5,0.1,1,0.1,1.5v6.4h3.2v-6.7C221.4,67.1,221.4,66.5,221.1,65.9"/>
			<path id="Path_10225" class="st0" d="M185.9,65.9c-0.1-0.5-0.2-1-0.5-1.5c-0.2-0.4-0.5-0.7-0.9-1.1c-0.4-0.2-0.7-0.5-1.1-0.7
				c-0.4-0.1-0.9-0.2-1.4-0.4c-0.5-0.1-1-0.1-1.5-0.1c-0.9,0-1.6,0.1-2.3,0.2c-0.6,0.1-1.2,0.5-1.9,1c-0.4,0.4-0.7,0.9-1,1.2
				c-0.1-0.2-0.2-0.5-0.5-0.7c-0.2-0.4-0.5-0.6-0.9-0.9c-0.4-0.2-0.7-0.4-1.1-0.6c-0.4-0.1-0.9-0.2-1.2-0.2c-0.5,0-0.9-0.1-1.4-0.1
				c-0.7,0-1.5,0.1-2.2,0.2c-0.6,0.1-1.2,0.5-1.7,0.9c-0.4,0.2-0.6,0.6-0.7,1l-0.1-1.6h-2.8v11.8h3.2v-9.9h3.8c0.4,0,0.7,0,1.1,0.1
				c0.2,0,0.6,0.1,0.9,0.4c0.2,0.1,0.5,0.4,0.6,0.6c0.2,0.2,0.4,0.6,0.4,1c0.1,0.5,0.1,1,0.1,1.5v6.4h3.2v-9.9h3.8
				c0.4,0,0.7,0,1.1,0.1c0.2,0,0.6,0.1,0.9,0.4c0.2,0.1,0.5,0.4,0.6,0.6c0.2,0.2,0.4,0.6,0.4,1c0.1,0.5,0.1,1,0.1,1.5v6.4h3.2v-6.7
				C186.1,67.1,186.1,66.5,185.9,65.9"/>
			<path id="Path_10226" class="st0" d="M158.9,65.9c-0.1-0.5-0.4-1-0.6-1.5c-0.2-0.4-0.5-0.7-0.9-1.1c-0.4-0.2-0.7-0.5-1.2-0.7
				c-0.5-0.1-0.9-0.2-1.4-0.4c-0.5-0.1-1-0.1-1.6-0.1c-0.7,0-1.5,0.1-2.2,0.2c-0.6,0.1-1.2,0.4-1.7,0.9c-0.2,0.2-0.6,0.5-0.9,0.9
				v-7.2l-3.2,0.9v16.8h3.2v-9.9h3.7c0.5,0,1,0,1.6,0.1c0.4,0,0.6,0.1,0.9,0.4c0.2,0.1,0.5,0.4,0.6,0.6c0.2,0.2,0.4,0.6,0.4,1
				c0.1,0.5,0.1,1,0.1,1.5v6.4h3.2V68C159.2,67.1,159.1,66.5,158.9,65.9"/>
		</g>
	</g>
	<g id="Group_8720">
		<path id="Path_10227" class="st1" d="M364.8,38c0,16.5,15.1,28.3,32.7,28.3c11.2,0.1,21.8-5.4,28.1-14.7c-7.2,4.7-15.8,7.7-23,7.7
			c-12,0-21.5-8.3-21.5-18.5c0-8.1,6.2-14.6,13.6-14.6c6.8,0,12.2,5.4,12.3,12.1c0,3.8-1.9,6.8-5.6,8.9c8.4-1,14.1-6.4,14.1-15.1
			c0-11.4-9.7-20.1-24.2-20.1C375.7,11.9,364.8,23.7,364.8,38z"/>
		<path id="Path_10228" class="st2" d="M359.6,51c0,20.5,15.3,37.3,33.8,37.3c13.9,0,25.9-9.4,30-23.4c-7.7,7.3-17.9,11.5-28.4,11.6
			c-18,0-33-14.2-33-31.3c0-6.5,1.7-12.8,5.2-18.4C362.2,33.8,359.6,42.3,359.6,51z"/>
		<g id="Group_8719">
			<path id="Path_10229" class="st1" d="M370,77.8c6,6.7,14.6,10.5,23.6,10.6c13.9,0,25.9-9.4,30-23.4c6.4-5.9,10.4-16.7,10.4-26.4
				c0-2.3-0.2-4.7-0.7-6.9c0-0.4,0.1-0.6,0.2-0.6c0.2,0,0.7,0.5,1.4,1.7c3.1,5.4,4.6,11.5,4.4,17.6c0,22.1-18,40.5-39.7,40.5
				C388.2,90.8,377.5,86,370,77.8L370,77.8z"/>
		</g>
	</g>
</g>
</svg>
