<svg viewBox="0 0 223 67" fill="none" xmlns="http://www.w3.org/2000/svg" class=""><path d="M222.6 7.64465H182.79V47.4301H222.6V7.64465Z" fill="#1C2D4F"></path><path d="M195.503 28.4052C195.989 28.1275 196.267 27.6415 196.267 27.086V26.3222C196.267 25.489 195.92 24.1003 193.697 24.1003H185.985V33.335H193.836C195.503 33.335 196.615 32.5018 196.615 31.1826V30.1411C196.615 29.3079 196.267 28.683 195.503 28.4052ZM194.53 27.086C194.53 27.4332 194.391 27.9192 193.488 27.9192C193.488 27.9192 188.138 27.9192 187.652 27.9192C187.652 27.5026 187.652 26.0445 187.652 25.6279C188.138 25.6279 193.558 25.6279 193.558 25.6279C193.697 25.6279 194.53 25.6279 194.53 26.2528V27.086ZM187.652 29.3773C188.138 29.3773 193.488 29.3773 193.488 29.3773C194.6 29.3773 194.878 29.5856 194.878 30.3494V30.9743C194.878 31.5297 194.669 31.8769 193.627 31.8769C193.627 31.8769 188.138 31.8769 187.652 31.8769C187.652 31.4603 187.652 29.7939 187.652 29.3773ZM200.366 31.8769H207.175V33.335H198.699V24.1003H200.436V31.8769H200.366ZM219.403 24.1003V30.9048C219.403 33.0573 218.083 33.4739 215.999 33.4739H211.969C209.885 33.4739 208.565 33.0573 208.565 30.9048V24.1003H210.301V30.9048C210.301 31.5297 210.44 31.9463 211.899 31.9463H215.999C217.527 31.9463 217.597 31.5297 217.597 30.9048V24.1003H219.403Z" fill="white"></path><path d="M25.3563 57.7757C25.6342 57.4285 25.9121 56.873 27.4406 56.5258C27.4406 56.5258 78.1586 39.3063 145.551 42.778C145.551 42.778 149.372 42.6391 148.33 44.3055C147.705 45.2776 146.593 45.347 144.439 45.4859C144.439 45.4859 143.675 45.6248 140.827 45.5553C140.827 45.5553 147.705 48.2633 120.47 47.7078C120.47 47.7078 122.902 50.138 112.897 49.4436C112.897 49.4436 84.9673 48.1938 28.5522 58.4005C28.5522 58.3311 24.1057 59.2338 25.3563 57.7757Z" fill="#1C2D4F"></path><path d="M82.6049 2.08996C82.6049 2.08996 79.27 -2.14548 79.8259 2.71487C79.8259 2.71487 80.3122 12.9216 78.5753 25.5585C78.3668 25.0725 78.1584 24.5864 77.7416 24.1004C77.7416 24.1004 74.8235 20.2121 71.5581 21.2536C71.5581 21.2536 67.3895 22.5729 64.9578 28.8913C64.9578 28.8913 63.2209 33.2656 63.7073 36.529C63.7073 36.529 63.5683 45.1388 74.0593 39.0286C74.0593 39.0286 75.1709 38.3343 76.491 37.015C76.2131 38.126 75.7962 38.8203 75.7962 39.9313C75.7962 39.9313 75.4488 42.2226 76.491 42.778C76.9078 42.9863 77.3247 42.7086 78.2279 40.4867C78.2279 40.4867 85.7314 21.3231 86.0788 13.4076C86.0788 13.4076 88.7189 9.51936 82.6049 2.08996ZM69.5433 36.5984C69.5433 36.5984 68.7791 36.1124 68.8485 33.7517C68.8485 33.7517 69.057 29.7245 71.7666 26.5306C71.7666 26.5306 72.5308 25.5585 73.1561 25.4196C73.3645 25.3502 73.7119 25.6974 73.8509 26.9472C73.9203 27.2249 73.0171 27.2943 73.3645 28.2664C73.3645 28.2664 74.8235 31.9464 77.8805 30.28C77.7416 31.0438 77.6026 31.8075 77.4636 32.5713C75.8657 34.7932 72.5308 38.612 69.5433 36.5984ZM108.45 21.0453C108.45 21.0453 114.495 27.5026 114.286 32.0158C114.286 32.0158 113.453 38.2649 103.101 38.0566C103.101 38.0566 100.53 37.7094 103.031 36.043C103.031 36.043 109.77 33.8905 105.324 25.8362C105.324 25.8362 101.155 30.6966 98.4456 33.4045C90.5947 41.1116 88.9968 38.2649 88.9968 38.2649C86.0093 33.96 88.1631 24.5864 88.1631 24.5864C89.3442 19.6567 91.9148 21.3925 91.9148 21.3925C95.6665 22.0174 94.277 25.2113 94.277 25.2113C93.7907 27.711 93.1654 27.4332 93.1654 27.4332C91.9843 28.3359 91.7758 32.5019 91.7758 32.5019C92.2622 34.7932 90.2474 37.9177 96.0834 32.849C97.4729 31.4604 104.421 23.6144 105.532 20.4899C105.602 20.4899 106.783 17.4348 108.45 21.0453ZM99.4183 11.4635C99.3488 12.4356 98.793 13.2688 98.0982 13.6854C97.0561 14.4491 94.9718 15.7684 94.3465 15.5601C93.6517 15.3518 94.416 13.1993 94.4854 12.6439C94.5549 11.9495 94.5549 11.4635 94.6939 10.8386C94.9023 9.38049 96.0834 8.33899 97.4035 8.40842C98.654 8.54729 99.5572 9.86652 99.4183 11.4635ZM142.285 19.7955C144.092 17.4348 145.342 18.4763 145.342 18.4763C145.481 18.5457 145.898 18.4763 146.037 18.4763C148.399 18.268 146.454 20.6287 146.454 20.6287C144.439 23.3366 142.633 28.4747 142.633 28.4747C142.146 29.6551 141.73 31.5298 141.73 31.5298C140.965 34.6543 144.3 32.4324 144.3 32.4324C144.787 32.0853 145.203 31.5992 145.412 31.3909C145.759 31.0438 146.107 30.9743 146.107 30.9743C146.801 30.9049 145.62 27.2943 145.62 27.2943C145.134 25.9057 145.203 25.8362 145.203 25.8362C144.856 24.1004 145.829 23.6838 145.829 23.6838C146.871 23.0589 147.705 24.7253 147.705 24.7253C148.608 26.114 149.442 29.794 149.442 29.794C150.206 33.0573 147.774 32.7796 147.774 32.7796C146.732 32.9879 145.064 34.7237 145.064 34.7237C142.355 36.9456 138.603 37.1539 138.603 37.1539C134.851 37.2928 135.199 34.0294 135.199 34.0294C135.129 30.4883 142.285 19.7955 142.285 19.7955ZM127.348 24.517C129.085 25.6974 131.933 28.3359 131.447 31.1132C131.447 31.1132 130.613 37.3622 120.261 37.1539C120.261 37.1539 119.15 37.0845 119.08 36.3901C119.08 35.9041 119.289 35.4875 120.192 35.1403C120.192 35.1403 126.931 32.9879 122.485 24.9336C122.485 24.9336 120.817 26.2528 118.524 28.0581C118.524 28.0581 116.926 29.8634 116.996 27.2943C116.996 27.2943 117.135 25.9057 117.76 25.3502C117.76 25.3502 121.512 23.1283 122.762 19.6567C123.388 17.3653 126.723 15.4212 127.07 17.3653C127.209 18.1986 126.236 18.754 125.75 19.3789C124.638 20.6982 126.097 23.6838 127.348 24.517ZM60.7892 36.9456C60.7892 36.9456 60.7892 36.8067 60.6503 36.7373C60.3724 36.529 58.9828 37.1539 57.6628 37.9871C57.4544 38.126 57.2459 38.1954 57.0375 38.3343C56.5512 38.612 56.0648 38.9592 55.8564 39.0981C55.8564 39.0981 54.9532 39.7924 55.0922 38.2649V38.1954C55.0922 37.8482 55.1616 37.4316 55.2311 36.9456C55.2311 36.9456 56.4122 32.1547 56.968 30.8355C56.968 30.8355 57.2459 29.5857 57.7323 28.1275C57.7323 28.1275 59.7471 26.0445 55.9953 25.3502C55.9953 25.3502 54.189 20.9759 52.3131 27.8498C52.1741 27.1555 51.5488 26.0445 50.5067 25.6279C50.2983 25.4891 50.0204 25.4196 49.6035 25.4196C49.4645 25.4196 49.3256 25.4196 49.0477 25.4196C49.0477 25.4196 47.2413 24.7947 45.3654 27.2249C43.3506 29.4468 37.3756 36.5984 38.6956 42.5697C38.6956 42.5697 39.4599 45.6942 42.1695 45.6248C42.1695 45.6248 45.7823 45.6942 48.5613 43.0558C48.5613 43.0558 49.3951 42.3614 50.2983 41.2505C50.2983 41.5977 50.3677 42.0143 50.5067 42.4309C50.5067 42.5003 50.5762 42.5697 50.5762 42.6392C50.5762 42.6392 50.6456 43.3335 51.2709 43.889C51.6878 44.3056 52.3826 44.5833 53.4247 44.4444C53.5637 44.4444 53.6331 44.375 53.7721 44.375C53.7721 44.375 57.5933 43.4724 57.5238 41.806C57.4544 40.9728 57.8017 40.8339 57.8017 40.8339C57.8017 40.8339 58.0796 40.695 57.9407 40.4173C57.8017 40.2784 60.8587 38.2649 60.7892 36.9456ZM49.673 39.2369C49.3256 39.723 49.0477 40.3479 48.214 40.8339C48.214 40.8339 43.9759 43.4029 44.1148 39.7924C44.1148 39.7924 44.2538 37.7788 44.9486 35.9041C44.9486 35.9041 46.8939 30.9743 49.8814 28.1275C50.1593 27.8498 50.3677 27.8498 50.5762 28.0581C50.993 28.6136 51.0625 29.3079 51.4099 29.794C51.4794 29.9328 51.6183 30.0717 51.6878 30.2106C51.3404 32.0853 50.4372 35.5569 50.2288 38.1954C50.1593 38.5426 49.8814 38.8898 49.673 39.2369ZM20.2843 19.2401C21.118 20.6982 20.0064 23.0589 20.0064 23.0589C15.3515 32.5713 9.51543 55.1372 8.33433 59.7198C8.33433 59.7198 8.33433 59.7893 8.26485 59.9281C8.1259 60.3447 8.1259 60.553 8.1259 60.553C8.05642 60.9002 7.98694 61.1779 7.91747 61.4557C7.77851 62.15 7.70904 63.0526 7.70904 64.0941C7.77851 65.3439 7.70904 66.5937 7.29218 66.7326C6.25003 67.2186 5.69421 65.83 5.41631 64.3024C4.37416 64.0941 3.54044 62.7055 3.54044 62.7055C-0.280783 60.1364 2.56776 53.1236 2.56776 53.1236C5.1384 42.9169 17.8526 21.3925 17.8526 21.3925C19.3811 19.0318 20.0064 18.754 20.2843 19.2401ZM39.6683 55.3455C41.6831 58.1923 43.2116 60.1364 42.7948 60.553C41.4052 61.7334 35.2218 56.9425 35.2218 56.9425C24.4529 47.9161 19.7285 36.5984 18.6864 33.8211C18.5474 33.4045 18.8253 33.0573 18.8253 33.0573C19.1727 32.6407 19.798 32.4324 21.3265 32.2241C20.4928 31.8075 20.2843 31.7381 20.3538 31.4604C20.4928 31.0438 22.0212 31.0438 22.0212 31.0438C23.2023 30.9743 24.1055 30.9049 24.1055 30.9049C25.8425 30.6966 26.7457 30.5577 26.7457 30.5577C30.4279 29.9328 31.8869 28.3359 31.8869 28.3359C35.5692 24.5864 29.6637 20.9065 29.6637 20.9065C14.7262 12.2967 2.63724 16.3933 2.63724 16.3933C2.01195 16.6016 1.45613 16.6016 0.761367 16.3238C-0.836597 15.7684 2.01195 13.5465 2.01195 13.5465C9.37648 7.43635 13.2672 9.31105 13.2672 9.31105C27.6489 10.2831 34.0407 17.782 34.0407 17.782C39.043 23.0589 37.7925 27.2943 37.0977 28.5442C34.666 33.0573 28.83 33.1268 28.83 33.1268C27.9268 33.1962 27.1625 33.1962 26.3983 33.1962C27.093 33.96 27.5794 35.2792 27.5794 35.2792C28.691 38.8203 39.6683 55.3455 39.6683 55.3455ZM174.662 34.7237C174.662 34.7237 182.582 41.2505 172.786 40.9033C172.786 40.9033 170.91 41.0422 169.729 37.1539C169.729 37.1539 166.394 29.4468 166.602 26.6C166.255 26.9472 164.379 29.2385 163.337 31.6687C162.712 33.1268 162.503 33.6128 161.6 35.0015C161.114 35.6958 160.627 36.3207 160.21 36.7373C155.903 40.7645 155.486 35.6264 155.486 35.6264C154.583 31.2521 156.806 24.2393 156.806 24.2393C158.404 19.3789 160.836 21.3925 160.836 21.3925C164.171 22.2257 162.781 25.4196 162.781 25.4196C162.086 27.8498 161.461 27.2943 161.461 27.2943C160.627 27.8498 160.419 29.0302 160.349 29.7245C160.349 29.7245 160.071 32.4324 161.253 30.3494C162.156 28.4747 163.893 25.4196 165.213 24.4476C165.213 24.4476 167.089 22.434 168.2 24.1004C168.131 24.1004 172.925 33.6128 174.662 34.7237Z" fill="#1C2D4F"></path><path d="M152.915 43.1251C154.999 43.264 157.292 43.264 160.488 43.6112C162.155 43.75 164.726 43.75 165.073 44.861C165.421 45.833 164.17 46.8745 161.877 47.2911C160.766 47.4994 160.001 47.7077 159.029 47.6383C157.848 47.5689 155.208 47.7077 155.138 46.3191C155.069 45.4164 153.401 45.4859 152.22 45.4164C149.927 45.347 150.205 44.6527 150.692 43.8889C151.039 43.4029 151.664 43.1251 152.915 43.1251Z" fill="#1C2D4F"></path></svg>